<svg width="796" height="251" viewBox="0 0 796 251" fill="none" xmlns="http://www.w3.org/2000/svg">
<path d="M242.55 195.225H200.2V247.725H169.05C169.05 230.225 168.7 212.725 168.7 195.225H0V172.125L172.2 2.72498H200.2V167.225H242.55V195.225ZM44.1 167.225H168.7V45.075L44.1 167.225Z" fill="#3366CC"/>
<path d="M266.448 125.575C266.448 45.775 319.648 0.274994 398.398 0.274994C477.498 0.274994 530.348 45.775 530.348 125.575C530.348 205.375 477.498 250.875 398.398 250.875C319.648 250.875 266.448 205.375 266.448 125.575ZM498.498 125.575C498.498 62.925 456.848 29.675 398.398 29.675C339.948 29.675 298.648 62.925 298.648 125.575C298.648 187.875 339.948 221.475 398.398 221.475C456.848 221.475 498.498 187.875 498.498 125.575Z" fill="#3366CC"/>
<path d="M795.236 195.225H752.886V247.725H721.736C721.736 230.225 721.386 212.725 721.386 195.225H552.686V172.125L724.886 2.72498H752.886V167.225H795.236V195.225ZM596.786 167.225H721.386V45.075L596.786 167.225Z" fill="#3366CC"/>
</svg>
