<svg width="144" height="48" viewBox="0 0 144 48" fill="none" xmlns="http://www.w3.org/2000/svg">
<g clip-path="url(#clip0_1180_14819)">
<path d="M102.62 37.0055V0H110.056V37.0055H102.62Z" fill="#F7A600"/>
<path d="M15.9721 47.9943H0.0341797V10.9945H15.3327C22.7631 10.9945 27.1004 15.0512 27.1004 21.3897C27.1004 25.4982 24.3183 28.1431 22.3887 29.0305C24.687 30.0677 27.6303 32.4072 27.6303 37.3455C27.6303 44.2488 22.7631 47.9943 15.9721 47.9943ZM14.7452 17.4425H7.46458V25.965H14.7452C17.9017 25.965 19.67 24.2478 19.67 21.7009C19.67 19.1539 17.9017 17.4425 14.7452 17.4425ZM15.2233 32.4591H7.46458V41.552H15.2175C18.5929 41.552 20.1942 39.4718 20.1942 36.9767C20.1942 34.4817 18.5871 32.4591 15.2233 32.4591Z" fill="black"/>
<path d="M50.307 32.8164V47.9943H42.9227V32.8164L31.4775 10.9945H39.5588L46.6667 25.9074L53.6766 10.9945H61.7521L50.307 32.8164Z" fill="black"/>
<path d="M82.8285 47.9943H66.8906V10.9945H82.1892C89.6196 10.9945 93.9569 15.0512 93.9569 21.3897C93.9569 25.4982 91.1748 28.1431 89.2452 29.0305C91.5434 30.0677 94.4868 32.4072 94.4868 37.3455C94.4868 44.2488 89.6253 47.9943 82.8285 47.9943ZM81.6017 17.4425H74.3268V25.965H81.6017C84.7581 25.965 86.5265 24.2478 86.5265 21.7009C86.5207 19.1539 84.7524 17.4425 81.6017 17.4425ZM82.0797 32.4591H74.3268V41.552H82.0797C85.4551 41.552 87.0564 39.4718 87.0564 36.9767C87.0564 34.4817 85.4493 32.4591 82.0797 32.4591Z" fill="black"/>
<path d="M134.017 17.4425V48H126.581V17.4425H116.634V10.9945H143.965V17.4425H134.017Z" fill="black"/>
</g>
<defs>
<clipPath id="clip0_1180_14819">
<rect width="144" height="48" fill="white"/>
</clipPath>
</defs>
</svg>
