<svg width="512" height="512" viewBox="0 0 512 512" fill="none" xmlns="http://www.w3.org/2000/svg">
<path fill-rule="evenodd" clip-rule="evenodd" d="M316.175 83.1009C310.538 83.8523 303.62 85.0035 300.802 85.6601C287.308 88.7995 268.197 96.5111 268.733 98.6003C268.897 99.2393 273.599 112.534 279.181 128.144L289.332 156.527L292.77 152.7C297.509 147.426 308.531 141.855 319.378 139.255C330.798 136.516 352.173 136.265 363.83 138.732C384.158 143.034 396.474 155.53 402.284 177.744C403.939 184.073 404.345 184.702 406.77 184.718C408.237 184.727 423.208 184.173 440.039 183.485L470.641 182.236L469.938 174.966C467.694 151.751 459.652 132.607 445.729 117.337C429.626 99.6753 409.586 89.5447 380.228 84.2223C367.193 81.86 330.327 81.2137 316.175 83.1009ZM158.214 97.8665C140.98 142.534 125.588 182.315 110.661 220.775C92.1382 268.496 80.8125 297.762 67.5836 332.089C63.7599 342.009 53.7398 367.872 45.3165 389.563L30 429L64.4332 428.729L98.8654 428.458L122.21 367.132C135.049 333.403 156.191 276.355 169.191 240.358C182.193 204.362 193.142 174.584 193.526 174.185C193.908 173.788 202.013 194.659 211.536 220.566C221.06 246.474 242.699 303.964 259.624 348.322L290.395 428.973H318.462C333.898 428.973 346.313 428.622 346.049 428.192C345.508 427.313 340.154 412.491 299.233 298.592C253.571 171.502 226.499 95.8896 226.499 95.4433C226.499 95.2176 211.382 95.0321 192.903 95.0321H159.308L158.214 97.8665ZM303.364 195.405C303.364 196.181 331.878 274.532 332.323 274.979C332.608 275.265 340.851 277.573 350.642 280.107C392.251 290.874 403.448 296.493 410.011 309.899C412.994 315.993 413.212 317.149 412.875 325.09C412.573 332.231 411.957 334.812 409.233 340.359C403.181 352.677 389.683 363.307 375.851 366.649C371.776 367.633 367.907 368.725 367.255 369.074C366.438 369.51 369.056 378.091 375.627 396.507L385.187 423.304L388.6 423.028C394.395 422.558 408.452 418.714 417.651 415.082C446.641 403.636 468.373 379.288 476.824 348.784C478.715 341.962 479.02 338.176 478.999 321.782C478.978 305.407 478.657 301.551 476.728 294.469C469.318 267.26 451.661 246.712 424.82 234.063C411.822 227.937 388.938 220.601 359.219 213.035C332.723 206.288 319.026 202.076 308.744 197.511C305.786 196.197 303.364 195.249 303.364 195.405ZM170.89 362.392C158.073 397.683 147.585 426.869 147.585 427.25C147.585 427.631 168.736 427.943 194.587 427.943H241.589L235.144 410.163C212.73 348.334 194.621 298.655 194.424 298.457C194.298 298.331 183.708 327.102 170.89 362.392Z" fill="#3366CC"/>
</svg>
