<svg width="223" height="57" viewBox="0 0 223 57" fill="none" xmlns="http://www.w3.org/2000/svg">
<path fill-rule="evenodd" clip-rule="evenodd" d="M42.8093 0.164978C41.9661 0.277575 40.9313 0.450099 40.5097 0.548486C38.4912 1.01895 35.6323 2.17458 35.7124 2.48765C35.737 2.58342 36.4404 4.57572 37.2754 6.91492L38.794 11.1683L39.3082 10.5948C40.0171 9.80444 41.6659 8.96962 43.2886 8.57993C44.9969 8.16955 48.1944 8.13186 49.9383 8.50163C52.979 9.14632 54.8215 11.0189 55.6906 14.3479C55.9382 15.2962 55.9989 15.3906 56.3617 15.3929C56.5811 15.3943 58.8206 15.3112 61.3384 15.2082L65.9163 15.021L65.8111 13.9314C65.4753 10.4525 64.2723 7.58371 62.1896 5.29547C59.7808 2.64875 56.783 1.13062 52.3912 0.333023C50.4413 -0.0209848 44.9264 -0.117827 42.8093 0.164978ZM19.1797 2.37768C16.6017 9.07141 14.2991 15.0329 12.0661 20.7963C9.29536 27.9475 7.60113 32.3332 5.6222 37.4773C5.0502 38.9639 3.55128 42.8397 2.29122 46.0901L0 52L5.15092 51.9594L10.3017 51.9188L13.7938 42.7288C15.7145 37.6743 18.8771 29.1252 20.8219 23.7309C22.7668 18.3366 24.4047 13.8743 24.4621 13.8145C24.5192 13.7549 25.7318 16.8826 27.1563 20.765C28.581 24.6475 31.818 33.2626 34.3498 39.91L38.953 51.996H43.1515C45.4607 51.996 47.3177 51.9433 47.2783 51.8789C47.1974 51.7472 46.3965 49.526 40.275 32.4576C33.4444 13.4123 29.3947 2.08144 29.3947 2.01456C29.3947 1.98074 27.1332 1.95294 24.369 1.95294H19.3433L19.1797 2.37768ZM40.8929 16.9944C40.8929 17.1107 45.1585 28.852 45.225 28.919C45.2677 28.962 46.5007 29.3078 47.9653 29.6874C54.1897 31.301 55.8648 32.1431 56.8464 34.1521C57.2927 35.0652 57.3254 35.2385 57.2749 36.4284C57.2297 37.4986 57.1376 37.8854 56.7301 38.7167C55.8248 40.5625 53.8055 42.1556 51.7364 42.6563C51.1269 42.8038 50.5481 42.9674 50.4505 43.0197C50.3283 43.0851 50.72 44.3711 51.7029 47.1307L53.1329 51.1465L53.6436 51.1051C54.5104 51.0347 56.6132 50.4586 57.9894 49.9143C62.3261 48.199 65.577 44.5504 66.8412 39.9792C67.1241 38.9568 67.1696 38.3895 67.1665 35.9328C67.1633 33.4788 67.1153 32.901 66.8268 31.8398C65.7184 27.7623 63.077 24.6831 59.0618 22.7875C57.1173 21.8695 53.6941 20.7702 49.2484 19.6364C45.2848 18.6253 43.2358 17.994 41.6978 17.31C41.2552 17.113 40.8929 16.9711 40.8929 16.9944ZM21.076 42.0184C19.1586 47.3069 17.5898 51.6806 17.5898 51.7377C17.5898 51.7949 20.7538 51.8415 24.6209 51.8415H31.652L30.6878 49.1772C27.3349 39.9117 24.6259 32.467 24.5965 32.4373C24.5777 32.4185 22.9935 36.7299 21.076 42.0184Z" fill="#3366CC"/>
<path d="M86.8482 50.0079H80.6082L79.2642 52.9999H78.0322L83.1522 41.7999H84.3202L89.4402 52.9999H88.1922L86.8482 50.0079ZM86.4162 49.0479L83.7282 43.0319L81.0402 49.0479H86.4162Z" fill="#575757"/>
<path d="M92.141 46.2319C92.4076 45.6666 92.8023 45.2399 93.325 44.9519C93.8583 44.6639 94.5143 44.5199 95.293 44.5199V45.6239L95.021 45.6079C94.1356 45.6079 93.4423 45.8799 92.941 46.4239C92.4396 46.9679 92.189 47.7306 92.189 48.7119V52.9999H91.053V44.5839H92.141V46.2319Z" fill="#575757"/>
<path d="M101.686 44.5199C102.475 44.5199 103.19 44.7013 103.83 45.0639C104.47 45.4159 104.971 45.9173 105.334 46.5679C105.697 47.2186 105.878 47.9599 105.878 48.7919C105.878 49.6239 105.697 50.3653 105.334 51.0159C104.971 51.6666 104.47 52.1733 103.83 52.5359C103.19 52.8986 102.475 53.0799 101.686 53.0799C100.982 53.0799 100.347 52.9306 99.7819 52.6319C99.2272 52.3333 98.7792 51.9013 98.4379 51.3359V52.9999H97.3499V41.1279H98.4859V46.1839C98.8379 45.6399 99.2859 45.2293 99.8299 44.9519C100.385 44.6639 101.003 44.5199 101.686 44.5199ZM101.606 52.0719C102.193 52.0719 102.726 51.9386 103.206 51.6719C103.686 51.3946 104.059 51.0053 104.326 50.5039C104.603 50.0026 104.742 49.4319 104.742 48.7919C104.742 48.1519 104.603 47.5813 104.326 47.0799C104.059 46.5786 103.686 46.1946 103.206 45.9279C102.726 45.6506 102.193 45.5119 101.606 45.5119C101.009 45.5119 100.47 45.6506 99.9899 45.9279C99.5205 46.1946 99.1472 46.5786 98.8699 47.0799C98.6032 47.5813 98.4699 48.1519 98.4699 48.7919C98.4699 49.4319 98.6032 50.0026 98.8699 50.5039C99.1472 51.0053 99.5205 51.3946 99.9899 51.6719C100.47 51.9386 101.009 52.0719 101.606 52.0719Z" fill="#575757"/>
<path d="M108.194 44.5839H109.33V52.9999H108.194V44.5839ZM108.77 42.7439C108.535 42.7439 108.338 42.6639 108.178 42.5039C108.018 42.3439 107.938 42.1519 107.938 41.9279C107.938 41.7146 108.018 41.5279 108.178 41.3679C108.338 41.2079 108.535 41.1279 108.77 41.1279C109.004 41.1279 109.202 41.2079 109.362 41.3679C109.522 41.5173 109.602 41.6986 109.602 41.9119C109.602 42.1466 109.522 42.3439 109.362 42.5039C109.202 42.6639 109.004 42.7439 108.77 42.7439Z" fill="#575757"/>
<path d="M116.922 52.4879C116.709 52.6799 116.442 52.8293 116.122 52.9359C115.813 53.0319 115.488 53.0799 115.146 53.0799C114.357 53.0799 113.749 52.8666 113.322 52.4399C112.896 52.0133 112.682 51.4106 112.682 50.6319V45.5439H111.178V44.5839H112.682V42.7439H113.818V44.5839H116.378V45.5439H113.818V50.5679C113.818 51.0693 113.941 51.4533 114.186 51.7199C114.442 51.9759 114.805 52.1039 115.274 52.1039C115.509 52.1039 115.733 52.0666 115.946 51.9919C116.17 51.9173 116.362 51.8106 116.522 51.6719L116.922 52.4879Z" fill="#575757"/>
<path d="M120.078 46.2319C120.345 45.6666 120.74 45.2399 121.262 44.9519C121.796 44.6639 122.452 44.5199 123.23 44.5199V45.6239L122.958 45.6079C122.073 45.6079 121.38 45.8799 120.878 46.4239C120.377 46.9679 120.126 47.7306 120.126 48.7119V52.9999H118.99V44.5839H120.078V46.2319Z" fill="#575757"/>
<path d="M128.216 44.5199C129.314 44.5199 130.157 44.7973 130.744 45.3519C131.33 45.8959 131.624 46.7066 131.624 47.7839V52.9999H130.536V51.6879C130.28 52.1253 129.901 52.4666 129.4 52.7119C128.909 52.9573 128.322 53.0799 127.64 53.0799C126.701 53.0799 125.954 52.8559 125.4 52.4079C124.845 51.9599 124.568 51.3679 124.568 50.6319C124.568 49.9173 124.824 49.3413 125.336 48.9039C125.858 48.4666 126.685 48.2479 127.816 48.2479H130.488V47.7359C130.488 47.0106 130.285 46.4613 129.88 46.0879C129.474 45.7039 128.882 45.5119 128.104 45.5119C127.57 45.5119 127.058 45.6026 126.568 45.7839C126.077 45.9546 125.656 46.1946 125.304 46.5039L124.792 45.6559C125.218 45.2933 125.73 45.0159 126.328 44.8239C126.925 44.6213 127.554 44.5199 128.216 44.5199ZM127.816 52.1839C128.456 52.1839 129.005 52.0399 129.464 51.7519C129.922 51.4533 130.264 51.0266 130.488 50.4719V49.0959H127.848C126.408 49.0959 125.688 49.5973 125.688 50.5999C125.688 51.0906 125.874 51.4799 126.248 51.7679C126.621 52.0453 127.144 52.1839 127.816 52.1839Z" fill="#575757"/>
<path d="M142.532 44.5839V51.9759C142.532 53.4053 142.18 54.4613 141.476 55.1439C140.783 55.8373 139.732 56.1839 138.324 56.1839C137.546 56.1839 136.804 56.0666 136.1 55.8319C135.407 55.6079 134.842 55.2933 134.404 54.8879L134.98 54.0239C135.386 54.3866 135.876 54.6693 136.452 54.8719C137.039 55.0746 137.652 55.1759 138.292 55.1759C139.359 55.1759 140.143 54.9253 140.644 54.4239C141.146 53.9333 141.396 53.1653 141.396 52.1199V51.0479C141.044 51.5813 140.58 51.9866 140.004 52.2639C139.439 52.5413 138.81 52.6799 138.116 52.6799C137.327 52.6799 136.607 52.5093 135.956 52.1679C135.316 51.8159 134.81 51.3306 134.436 50.7119C134.074 50.0826 133.892 49.3733 133.892 48.5839C133.892 47.7946 134.074 47.0906 134.436 46.4719C134.81 45.8533 135.316 45.3733 135.956 45.0319C136.596 44.6906 137.316 44.5199 138.116 44.5199C138.831 44.5199 139.476 44.6639 140.052 44.9519C140.628 45.2399 141.092 45.6559 141.444 46.1999V44.5839H142.532ZM138.228 51.6719C138.836 51.6719 139.386 51.5439 139.876 51.2879C140.367 51.0213 140.746 50.6533 141.012 50.1839C141.29 49.7146 141.428 49.1813 141.428 48.5839C141.428 47.9866 141.29 47.4586 141.012 46.9999C140.746 46.5306 140.367 46.1679 139.876 45.9119C139.396 45.6453 138.847 45.5119 138.228 45.5119C137.62 45.5119 137.071 45.6399 136.58 45.8959C136.1 46.1519 135.722 46.5146 135.444 46.9839C135.178 47.4533 135.044 47.9866 135.044 48.5839C135.044 49.1813 135.178 49.7146 135.444 50.1839C135.722 50.6533 136.1 51.0213 136.58 51.2879C137.071 51.5439 137.62 51.6719 138.228 51.6719Z" fill="#575757"/>
<path d="M153.037 49.1439H145.997C146.061 50.0186 146.397 50.7279 147.005 51.2719C147.613 51.8053 148.381 52.0719 149.309 52.0719C149.832 52.0719 150.312 51.9813 150.749 51.7999C151.187 51.6079 151.565 51.3306 151.885 50.9679L152.525 51.7039C152.152 52.1519 151.683 52.4933 151.117 52.7279C150.563 52.9626 149.949 53.0799 149.277 53.0799C148.413 53.0799 147.645 52.8986 146.973 52.5359C146.312 52.1626 145.795 51.6506 145.421 50.9999C145.048 50.3493 144.861 49.6133 144.861 48.7919C144.861 47.9706 145.037 47.2346 145.389 46.5839C145.752 45.9333 146.243 45.4266 146.861 45.0639C147.491 44.7013 148.195 44.5199 148.973 44.5199C149.752 44.5199 150.451 44.7013 151.069 45.0639C151.688 45.4266 152.173 45.9333 152.525 46.5839C152.877 47.2239 153.053 47.9599 153.053 48.7919L153.037 49.1439ZM148.973 45.4959C148.163 45.4959 147.48 45.7573 146.925 46.2799C146.381 46.7919 146.072 47.4639 145.997 48.2959H151.965C151.891 47.4639 151.576 46.7919 151.021 46.2799C150.477 45.7573 149.795 45.4959 148.973 45.4959Z" fill="#575757"/>
<path d="M162.881 53.0959C162.049 53.0959 161.249 52.9626 160.481 52.6959C159.724 52.4293 159.137 52.0773 158.721 51.6399L159.185 50.7279C159.59 51.1333 160.129 51.4639 160.801 51.7199C161.473 51.9653 162.166 52.0879 162.881 52.0879C163.884 52.0879 164.636 51.9066 165.137 51.5439C165.638 51.1706 165.889 50.6906 165.889 50.1039C165.889 49.6559 165.75 49.2986 165.473 49.0319C165.206 48.7653 164.876 48.5626 164.481 48.4239C164.086 48.2746 163.537 48.1146 162.833 47.9439C161.99 47.7306 161.318 47.5279 160.817 47.3359C160.316 47.1333 159.884 46.8293 159.521 46.4239C159.169 46.0186 158.993 45.4693 158.993 44.7759C158.993 44.2106 159.142 43.6986 159.441 43.2399C159.74 42.7706 160.198 42.3973 160.817 42.1199C161.436 41.8426 162.204 41.7039 163.121 41.7039C163.761 41.7039 164.385 41.7946 164.993 41.9759C165.612 42.1466 166.145 42.3866 166.593 42.6959L166.193 43.6399C165.724 43.3306 165.222 43.1013 164.689 42.9519C164.156 42.7919 163.633 42.7119 163.121 42.7119C162.14 42.7119 161.398 42.9039 160.897 43.2879C160.406 43.6613 160.161 44.1466 160.161 44.7439C160.161 45.1919 160.294 45.5546 160.561 45.8319C160.838 46.0986 161.18 46.3066 161.585 46.4559C162.001 46.5946 162.556 46.7493 163.249 46.9199C164.07 47.1226 164.732 47.3253 165.233 47.5279C165.745 47.7199 166.177 48.0186 166.529 48.4239C166.881 48.8186 167.057 49.3573 167.057 50.0399C167.057 50.6053 166.902 51.1226 166.593 51.5919C166.294 52.0506 165.83 52.4186 165.201 52.6959C164.572 52.9626 163.798 53.0959 162.881 53.0959Z" fill="#575757"/>
<path d="M176.725 49.1439H169.685C169.749 50.0186 170.085 50.7279 170.693 51.2719C171.301 51.8053 172.069 52.0719 172.997 52.0719C173.519 52.0719 173.999 51.9813 174.437 51.7999C174.874 51.6079 175.253 51.3306 175.573 50.9679L176.213 51.7039C175.839 52.1519 175.37 52.4933 174.805 52.7279C174.25 52.9626 173.637 53.0799 172.965 53.0799C172.101 53.0799 171.333 52.8986 170.661 52.5359C169.999 52.1626 169.482 51.6506 169.109 50.9999C168.735 50.3493 168.549 49.6133 168.549 48.7919C168.549 47.9706 168.725 47.2346 169.077 46.5839C169.439 45.9333 169.93 45.4266 170.549 45.0639C171.178 44.7013 171.882 44.5199 172.661 44.5199C173.439 44.5199 174.138 44.7013 174.757 45.0639C175.375 45.4266 175.861 45.9333 176.213 46.5839C176.565 47.2239 176.741 47.9599 176.741 48.7919L176.725 49.1439ZM172.661 45.4959C171.85 45.4959 171.167 45.7573 170.613 46.2799C170.069 46.7919 169.759 47.4639 169.685 48.2959H175.653C175.578 47.4639 175.263 46.7919 174.709 46.2799C174.165 45.7573 173.482 45.4959 172.661 45.4959Z" fill="#575757"/>
<path d="M180.141 46.2319C180.408 45.6666 180.802 45.2399 181.325 44.9519C181.858 44.6639 182.514 44.5199 183.293 44.5199V45.6239L183.021 45.6079C182.136 45.6079 181.442 45.8799 180.941 46.4239C180.44 46.9679 180.189 47.7306 180.189 48.7119V52.9999H179.053V44.5839H180.141V46.2319Z" fill="#575757"/>
<path d="M192.781 44.5839L189.037 52.9999H187.869L184.141 44.5839H185.325L188.477 51.7519L191.661 44.5839H192.781Z" fill="#575757"/>
<path d="M194.381 44.5839H195.517V52.9999H194.381V44.5839ZM194.957 42.7439C194.722 42.7439 194.525 42.6639 194.365 42.5039C194.205 42.3439 194.125 42.1519 194.125 41.9279C194.125 41.7146 194.205 41.5279 194.365 41.3679C194.525 41.2079 194.722 41.1279 194.957 41.1279C195.192 41.1279 195.389 41.2079 195.549 41.3679C195.709 41.5173 195.789 41.6986 195.789 41.9119C195.789 42.1466 195.709 42.3439 195.549 42.5039C195.389 42.6639 195.192 42.7439 194.957 42.7439Z" fill="#575757"/>
<path d="M202.166 53.0799C201.334 53.0799 200.587 52.8986 199.926 52.5359C199.275 52.1733 198.763 51.6666 198.39 51.0159C198.017 50.3546 197.83 49.6133 197.83 48.7919C197.83 47.9706 198.017 47.2346 198.39 46.5839C198.763 45.9333 199.275 45.4266 199.926 45.0639C200.587 44.7013 201.334 44.5199 202.166 44.5199C202.891 44.5199 203.537 44.6639 204.102 44.9519C204.678 45.2293 205.131 45.6399 205.462 46.1839L204.614 46.7599C204.337 46.3439 203.985 46.0346 203.558 45.8319C203.131 45.6186 202.667 45.5119 202.166 45.5119C201.558 45.5119 201.009 45.6506 200.518 45.9279C200.038 46.1946 199.659 46.5786 199.382 47.0799C199.115 47.5813 198.982 48.1519 198.982 48.7919C198.982 49.4426 199.115 50.0186 199.382 50.5199C199.659 51.0106 200.038 51.3946 200.518 51.6719C201.009 51.9386 201.558 52.0719 202.166 52.0719C202.667 52.0719 203.131 51.9706 203.558 51.7679C203.985 51.5653 204.337 51.2559 204.614 50.8399L205.462 51.4159C205.131 51.9599 204.678 52.3759 204.102 52.6639C203.526 52.9413 202.881 53.0799 202.166 53.0799Z" fill="#575757"/>
<path d="M214.881 49.1439H207.841C207.905 50.0186 208.241 50.7279 208.849 51.2719C209.457 51.8053 210.225 52.0719 211.153 52.0719C211.676 52.0719 212.156 51.9813 212.593 51.7999C213.03 51.6079 213.409 51.3306 213.729 50.9679L214.369 51.7039C213.996 52.1519 213.526 52.4933 212.961 52.7279C212.406 52.9626 211.793 53.0799 211.121 53.0799C210.257 53.0799 209.489 52.8986 208.817 52.5359C208.156 52.1626 207.638 51.6506 207.265 50.9999C206.892 50.3493 206.705 49.6133 206.705 48.7919C206.705 47.9706 206.881 47.2346 207.233 46.5839C207.596 45.9333 208.086 45.4266 208.705 45.0639C209.334 44.7013 210.038 44.5199 210.817 44.5199C211.596 44.5199 212.294 44.7013 212.913 45.0639C213.532 45.4266 214.017 45.9333 214.369 46.5839C214.721 47.2239 214.897 47.9599 214.897 48.7919L214.881 49.1439ZM210.817 45.4959C210.006 45.4959 209.324 45.7573 208.769 46.2799C208.225 46.7919 207.916 47.4639 207.841 48.2959H213.809C213.734 47.4639 213.42 46.7919 212.865 46.2799C212.321 45.7573 211.638 45.4959 210.817 45.4959Z" fill="#575757"/>
<path d="M219.465 53.0799C218.783 53.0799 218.127 52.9839 217.497 52.7919C216.879 52.5893 216.393 52.3386 216.041 52.0399L216.553 51.1439C216.905 51.4213 217.348 51.6506 217.881 51.8319C218.415 52.0026 218.969 52.0879 219.545 52.0879C220.313 52.0879 220.879 51.9706 221.241 51.7359C221.615 51.4906 221.801 51.1493 221.801 50.7119C221.801 50.4026 221.7 50.1626 221.497 49.9919C221.295 49.8106 221.039 49.6773 220.729 49.5919C220.42 49.4959 220.009 49.4053 219.497 49.3199C218.815 49.1919 218.265 49.0639 217.849 48.9359C217.433 48.7973 217.076 48.5679 216.777 48.2479C216.489 47.9279 216.345 47.4853 216.345 46.9199C216.345 46.2159 216.639 45.6399 217.225 45.1919C217.812 44.7439 218.628 44.5199 219.673 44.5199C220.217 44.5199 220.761 44.5946 221.305 44.7439C221.849 44.8826 222.297 45.0693 222.649 45.3039L222.153 46.2159C221.46 45.7359 220.633 45.4959 219.673 45.4959C218.948 45.4959 218.399 45.6239 218.025 45.8799C217.663 46.1359 217.481 46.4719 217.481 46.8879C217.481 47.2079 217.583 47.4639 217.785 47.6559C217.999 47.8479 218.26 47.9919 218.569 48.0879C218.879 48.1733 219.305 48.2639 219.849 48.3599C220.521 48.4879 221.06 48.6159 221.465 48.7439C221.871 48.8719 222.217 49.0906 222.505 49.3999C222.793 49.7093 222.937 50.1359 222.937 50.6799C222.937 51.4159 222.628 52.0026 222.009 52.4399C221.401 52.8666 220.553 53.0799 219.465 53.0799Z" fill="#575757"/>
</svg>
