<svg width="206" height="49" viewBox="0 0 206 49" fill="none" xmlns="http://www.w3.org/2000/svg">
<g clip-path="url(#clip0_696_35156)">
<path d="M62.125 34.0582L62.1531 14.0723H70.939C75.1496 14.0723 77.4794 16.9635 77.4794 20.36C77.4794 23.7565 75.0934 26.6196 70.939 26.6196H65.6618V34.0863H62.125V34.0582ZM70.4338 17.16H65.6338V23.5319H70.4338C72.4268 23.5319 73.8583 22.2688 73.8583 20.36C73.8583 18.4512 72.4268 17.16 70.4338 17.16Z" fill="#262626"/>
<path d="M89.6785 13.7638C95.6855 13.7638 99.896 18.1428 99.896 24.1217C99.896 30.1007 95.6574 34.4515 89.6504 34.4515C83.6434 34.4515 79.4609 30.0726 79.4609 24.0936C79.4609 18.1147 83.6995 13.7357 89.6785 13.7638ZM89.6785 16.8796C85.6364 16.8796 83.0539 19.9673 83.0539 24.0936C83.0539 28.22 85.6083 31.3077 89.6785 31.3077C93.7487 31.3077 96.303 28.1919 96.303 24.0936C96.303 19.9954 93.6925 16.8796 89.6785 16.8796Z" fill="#262626"/>
<path d="M103.305 34.1129L103.333 14.127H106.842L106.813 31.0252H115.627V34.1129H103.305Z" fill="#262626"/>
<path d="M127.214 13.8185C133.221 13.8185 137.432 18.1974 137.432 24.1764C137.432 30.1553 133.193 34.5062 127.186 34.5062C121.179 34.5062 116.969 30.1273 116.969 24.1483C116.969 18.1694 121.235 13.7904 127.214 13.8185ZM127.214 16.9062C123.172 16.9062 120.59 19.9939 120.59 24.1203C120.59 28.2466 123.144 31.3624 127.214 31.3624C131.256 31.3624 133.839 28.2466 133.839 24.1483C133.839 20.0501 131.256 16.9343 127.214 16.9062Z" fill="#262626"/>
<path d="M154.774 34.1722L144.36 19.5757V34.1442H140.852L140.88 14.1582H144.473L154.662 28.3617V14.1863H158.171L158.143 34.1722H154.774Z" fill="#262626"/>
<path d="M162.414 34.1676L162.442 14.1816H165.951L165.923 34.1676H162.414Z" fill="#262626"/>
<path d="M170.195 34.1957L170.223 14.1816H183.922V17.2694L173.732 17.2413V22.4343H183.725V25.522H173.732V31.0518H183.922V34.1395L170.195 34.1957Z" fill="#262626"/>
<path d="M200.879 34.2269L195.293 26.3953L189.679 34.2269H185.469L192.992 23.9813L185.974 14.2129H190.185L195.321 21.5673L200.458 14.241H204.697L197.679 23.9532L205.118 34.255L200.879 34.2269Z" fill="#262626"/>
<path d="M41.4033 12.077V24.0349L31.0454 18.056L20.6875 12.049L31.0735 6.09809L41.4314 0.119141L41.4033 12.077Z" fill="#082A38"/>
<path d="M20.6533 24.0067V35.9646L10.2954 29.9857L-0.0625 23.9787L10.2954 18.0278L20.6533 12.0488V24.0067Z" fill="#144655"/>
<path d="M-0.0625 12.0225V0.0645752L10.2954 6.04352L20.6533 12.0225L10.2954 18.0295L-0.0625 23.9804V12.0225Z" fill="#41D9BF"/>
<path d="M-0.0859375 35.9364L-0.0578656 23.9785L10.3 29.9855L20.6579 35.9645L10.3 41.9434L-0.0859375 47.8943V35.9364Z" fill="#082A38"/>
<path d="M31.0454 18.0558L20.6875 12.0488V24.0067V35.9646L31.0173 41.9716L41.3752 47.9506V35.9927L41.4033 24.0348L31.0454 18.0558Z" fill="#41D9BF"/>
</g>
<defs>
<clipPath id="clip0_696_35156">
<rect width="205.193" height="48" fill="white" transform="translate(0 0.0644531)"/>
</clipPath>
</defs>
</svg>
