<svg width="240" height="49" viewBox="0 0 240 49" fill="none" xmlns="http://www.w3.org/2000/svg">
<g clip-path="url(#clip0_894_12825)">
<path d="M14.4709 20.2345L23.7925 10.9132L33.1191 20.2394L38.5431 14.8154L23.7925 0.0644531L9.04688 14.8105L14.4709 20.2345Z" fill="#F3BA2F"/>
<path d="M10.6348 24.0626L5.21094 18.6387L-0.21322 24.0628L5.21067 29.4867L10.6348 24.0626Z" fill="#F3BA2F"/>
<path d="M14.471 27.8971L23.7927 37.2184L33.1189 27.8926L38.5459 33.3135L38.5432 33.3166L23.7927 48.0671L9.04664 33.3215L9.03906 33.3139L14.471 27.8971Z" fill="#F3BA2F"/>
<path d="M42.3727 29.4886L47.7969 24.0645L42.373 18.6406L36.9488 24.0647L42.3727 29.4886Z" fill="#F3BA2F"/>
<path d="M29.2974 24.0606H29.2997L23.7957 18.5566L19.7282 22.6242H19.7278L19.2607 23.0916L18.2966 24.0557L18.2891 24.0633L18.2966 24.0712L23.7957 29.5703L29.2997 24.0663L29.3023 24.0633L29.2974 24.0606Z" fill="#F3BA2F"/>
<path d="M56.25 11.6973H68.0469C70.9748 11.6973 73.1888 12.4487 74.6893 13.9515C75.8506 15.1154 76.431 16.5579 76.431 18.2787V18.3515C76.431 19.0786 76.3411 19.7212 76.1603 20.2785C75.9799 20.8366 75.7387 21.3389 75.4373 21.7874C75.1367 22.2363 74.7872 22.6302 74.3898 22.9691C73.9922 23.3088 73.5649 23.5999 73.1073 23.8418C74.579 24.3999 75.7376 25.1569 76.5823 26.1146C77.4266 27.0726 77.8493 28.3999 77.8493 30.0964V30.1688C77.8493 31.3327 77.6256 32.3506 77.1779 33.2237C76.7301 34.0961 76.0887 34.8236 75.2535 35.4055C74.4183 35.9875 73.414 36.4235 72.2403 36.7146C71.0665 37.0054 69.7658 37.1506 68.3384 37.1506H56.25V11.6973ZM66.8675 21.9876C68.1041 21.9876 69.086 21.776 69.8128 21.3514C70.5399 20.9272 70.9035 20.2421 70.9035 19.297V19.2242C70.9035 18.3761 70.5881 17.7278 69.958 17.279C69.3275 16.8305 68.4184 16.606 67.231 16.606H61.7039V21.9876H66.8675ZM68.3585 32.2422C69.5948 32.2422 70.5638 32.0185 71.2675 31.5697C71.9703 31.1212 72.3222 30.424 72.3222 29.4785V29.4061C72.3222 28.5576 71.9946 27.8851 71.3403 27.3877C70.6855 26.8914 69.6312 26.6427 68.1765 26.6427H61.7039V32.2426L68.3585 32.2422Z" fill="#F3BA2F"/>
<path d="M84.8672 11.6973H90.4675V37.1514H84.8672V11.6973Z" fill="#F3BA2F"/>
<path d="M98.9531 11.6973H104.116L116.043 27.3698V11.6973H121.57V37.1514H116.807L104.48 20.97V37.1514H98.9531V11.6973Z" fill="#F3BA2F"/>
<path d="M138.535 11.5137H143.698L154.607 37.1494H148.753L146.425 31.4407H135.662L133.335 37.1494H127.625L138.535 11.5137ZM144.425 26.4947L141.043 18.2407L137.662 26.4947H144.425Z" fill="#F3BA2F"/>
<path d="M160.648 11.6973H165.812L177.739 27.3698V11.6973H183.266V37.1514H178.503L166.176 20.97V37.1514H160.648V11.6973Z" fill="#F3BA2F"/>
<path d="M203.414 37.5862C201.546 37.5862 199.814 37.2465 198.213 36.5683C196.613 35.89 195.232 34.9624 194.068 33.7863C192.904 32.6107 191.995 31.2228 191.341 29.6229C190.687 28.0227 190.359 26.3136 190.359 24.4954V24.423C190.359 22.6048 190.687 20.9022 191.341 19.314C191.995 17.7263 192.904 16.3323 194.068 15.1324C195.231 13.9325 196.626 12.9866 198.249 12.2959C199.873 11.6051 201.668 11.2598 203.632 11.2598C204.819 11.2598 205.903 11.3572 206.885 11.5505C207.867 11.745 208.758 12.0112 209.558 12.3505C210.359 12.6902 211.097 13.1023 211.777 13.5868C212.455 14.072 213.085 14.6051 213.667 15.187L210.104 19.2958C209.109 18.3992 208.098 17.6956 207.068 17.1868C206.037 16.6781 204.88 16.4233 203.595 16.4233C202.528 16.4233 201.54 16.6295 200.632 17.0416C199.723 17.4537 198.941 18.0232 198.286 18.7503C197.632 19.4774 197.123 20.3202 196.758 21.2775C196.396 22.2355 196.214 23.2595 196.214 24.3502V24.4226C196.214 25.5133 196.396 26.5441 196.758 27.5131C197.123 28.4833 197.625 29.3314 198.268 30.0585C198.91 30.7857 199.686 31.3619 200.595 31.7861C201.505 32.2107 202.504 32.4223 203.595 32.4223C205.05 32.4223 206.279 32.1558 207.285 31.6224C208.291 31.0897 209.292 30.3622 210.286 29.4406L213.849 33.0406C213.195 33.7439 212.515 34.3743 211.813 34.9313C211.11 35.4893 210.34 35.9678 209.503 36.3681C208.668 36.7677 207.752 37.0714 206.759 37.2768C205.764 37.4827 204.649 37.5862 203.414 37.5862Z" fill="#F3BA2F"/>
<path d="M220.438 11.6973H239.601V16.6792H225.965V21.8427H237.965V26.8243H225.965V32.1698H239.783V37.1514H220.438V11.6973Z" fill="#F3BA2F"/>
</g>
<defs>
<clipPath id="clip0_894_12825">
<rect width="239.605" height="48" fill="white" transform="translate(0 0.0644531)"/>
</clipPath>
</defs>
</svg>
