<svg width="208" height="49" viewBox="0 0 208 49" fill="none" xmlns="http://www.w3.org/2000/svg">
<g clip-path="url(#clip0_894_12794)">
<path d="M34.9845 3.97851C31.8354 1.37978 27.5246 0.0957031 22.0214 0.0957031H8.32461V2.02181H21.7768C26.4545 2.02181 30.6737 2.96958 33.2724 5.23201C35.8711 7.49443 37.7972 10.7963 37.7972 14.8932C37.7972 18.8677 36.0851 21.7721 33.4252 24.004C30.7654 26.2358 25.9348 27.2142 21.1348 27.2142H5.69531V29.1403H21.2571C27.0354 29.1403 31.5603 27.8868 34.8316 25.3798C38.0724 22.8728 39.7233 19.3263 39.7233 14.7709C39.7233 10.1237 38.1335 6.54666 34.9845 3.97851Z" fill="white"/>
<path d="M33.8058 6.73146C31.8491 5.23337 29.6173 4.04102 23.258 4.04102H12.6797V5.90599C12.6797 5.90599 17.4185 5.84484 23.0134 5.90599C28.4249 5.96713 30.4122 6.57859 32.2466 7.92382C34.5701 9.63592 36.0376 11.776 36.0376 14.7417C36.0376 17.6155 34.5701 19.6334 32.216 21.3761C29.8313 23.1493 26.1625 23.1493 24.6644 23.2104C24.1141 23.2104 16.8071 23.2104 16.8071 23.2104V25.0754C16.8071 25.0754 20.4147 25.1366 22.6771 25.0754C27.8134 24.9531 30.8708 24.6474 33.7141 22.5378C36.374 20.5506 37.7803 17.9518 37.7803 14.6499C37.7803 10.3085 35.5791 8.13783 33.8058 6.73146Z" fill="white"/>
<path d="M32.8662 9.2064C31.3987 8.2892 30.1146 7.67773 24.0306 7.67773H16.4178V8.90066H23.8166C29.1974 8.90066 31.2153 9.84844 31.8573 10.2459C33.0802 10.9796 34.6701 12.2026 34.6701 14.6484C34.6701 16.2077 33.7529 18.1949 32.3771 18.9593C31.1236 19.6624 28.8306 20.3045 24.8255 20.3045H0V21.5274H24.8866C29.7478 21.5274 31.3987 20.9771 33.1108 20.0293C34.8229 19.0816 35.9847 17.1249 35.9847 14.6484C35.9847 11.8357 34.4255 10.1847 32.8662 9.2064Z" fill="white"/>
<path d="M37.7032 22.7519C34.5542 20.1532 30.2434 18.8691 24.7402 18.8691H15.5682V20.7953H24.465C29.1427 20.7953 33.3618 21.7736 35.9606 24.0054C38.5593 26.2373 40.516 29.5698 40.516 33.6666C40.516 37.6411 38.8344 40.5456 36.144 42.7774C33.4536 45.0093 28.6536 45.9876 23.8536 45.9876H8.41406V47.9137H23.9758C29.7542 47.9137 34.279 46.6602 37.5504 44.1532C40.8217 41.6462 42.4421 38.0997 42.4421 33.5443C42.4115 28.9277 40.8523 25.3507 37.7032 22.7519Z" fill="white"/>
<path d="M36.5344 25.501C34.5777 24.0335 32.3458 22.8105 25.9866 22.8105H11.6172V24.6755C11.6172 24.6755 20.1471 24.6144 25.742 24.6755C31.1535 24.7367 33.1408 25.3481 34.9751 26.6934C37.2987 28.4055 38.7662 30.5456 38.7662 33.5112C38.7662 36.3851 37.2987 38.4029 34.9446 40.1456C32.5599 41.9188 28.8911 41.9188 27.393 41.98C26.8427 41.98 19.5357 41.98 19.5357 41.98V43.8449C19.5357 43.8449 23.1739 43.9061 25.4057 43.8449C30.542 43.7227 33.5993 43.4169 36.4427 41.3074C39.1025 39.3201 40.5089 36.7214 40.5089 33.4195C40.5089 29.1086 38.3382 26.9074 36.5344 25.501Z" fill="white"/>
<path d="M14.6797 31.8618H28.1625V30.8223H14.6797V31.8618Z" fill="white"/>
<path d="M20.2344 35.498H28.0611V34.6113H20.2344V35.498Z" fill="white"/>
<path d="M8.41406 31.8618H12.3886V30.8223H8.41406V31.8618Z" fill="white"/>
<path d="M5.89844 35.561H18.036V34.5215H5.89844V35.561Z" fill="white"/>
<path d="M8.89062 8.81113H13.6295V7.95508H8.89062V8.81113Z" fill="white"/>
<path d="M5.63281 15.7772H16.4252V14.7988H5.63281V15.7772Z" fill="white"/>
<path d="M5.89844 43.7249H17.3023V42.502H5.89844V43.7249Z" fill="white"/>
<path d="M3.08594 47.7901H5.92925V45.9863H3.08594V47.7901Z" fill="white"/>
<path d="M10.1719 12.7225H28.0878V11.7441H10.1719V12.7225Z" fill="white"/>
<path d="M19.1406 15.7772H27.7623V14.7988H19.1406V15.7772Z" fill="white"/>
<path d="M35.585 28.1641C34.1175 27.2775 32.8334 26.666 26.7493 26.666H17.0882V27.8584H26.5659C31.9468 27.8584 33.9952 28.7756 34.6066 29.1425C35.799 29.8456 37.4194 31.0074 37.4194 33.3921C37.4194 34.9208 36.5022 36.8163 35.1264 37.5501C33.8729 38.2227 31.5799 38.8342 27.5748 38.8342H2.71875V40.0265H27.6054C32.4665 40.0265 34.1175 39.5068 35.8296 38.5896C37.5417 37.6724 38.6729 35.8074 38.6729 33.3921C38.7035 30.7323 37.1442 29.1424 35.585 28.1641Z" fill="white"/>
<path d="M61.09 25.5027V36.4173H67.0518C69.62 36.4173 71.6378 35.9281 73.0442 34.9498C74.42 34.0632 75.2149 32.5345 75.1843 30.8835C75.1843 27.3065 72.1576 25.5027 66.1346 25.5027H61.09ZM61.09 12.509V22.2925H65.5843C67.9996 22.2925 69.8646 21.8339 71.2404 20.8861C72.5856 20.03 73.3805 18.5014 73.3193 16.9116C73.3193 13.9765 70.9346 12.4784 66.1346 12.4784L61.09 12.509ZM56.6875 39.6275V9.29883H67.3576C70.5983 9.29883 73.1665 9.94087 75.062 11.2249C76.9576 12.509 77.9053 14.1905 77.9053 16.239C77.9359 17.8899 77.3244 19.5103 76.1932 20.7332C75.0315 22.0173 73.4722 22.9039 71.4544 23.4542V23.546C73.992 23.7905 76.0098 24.5549 77.5079 25.8695C79.006 27.123 79.8314 28.988 79.7703 30.9447C79.7703 33.5434 78.6085 35.6224 76.3155 37.2428C74.0225 38.8632 71.1181 39.6581 67.6022 39.6581H56.6875V39.6275Z" fill="white"/>
<path d="M84.6611 39.6237H88.9414V17.9779H84.6611V39.6237ZM86.8318 12.4441C86.1286 12.4747 85.4254 12.2301 84.8751 11.8021C84.3554 11.4352 84.0496 10.8237 84.0802 10.2122C84.0802 9.57021 84.386 8.95874 84.8751 8.59186C85.4254 8.16384 86.1286 7.91926 86.8318 7.94983C87.5656 7.91926 88.2688 8.16384 88.8191 8.59186C89.7057 9.2339 89.8891 10.4568 89.2777 11.3435C89.1554 11.5269 89.0025 11.6798 88.8191 11.8021C88.2688 12.2607 87.5656 12.4747 86.8318 12.4441Z" fill="white"/>
<path d="M107.857 39.4121C106.848 39.8707 105.503 40.0847 103.852 40.0847C99.1745 40.0847 96.8204 37.9752 96.8204 33.7255V20.9153H92.2344V17.9497H96.8204V12.6605L101.101 11.5293V17.9497H107.827V20.9153H101.101V33.114C101.101 34.551 101.406 35.5904 102.018 36.2325C102.629 36.8745 103.638 37.1497 105.045 37.1497C106.023 37.1802 107.001 36.9357 107.827 36.4159L107.857 39.4121Z" fill="white"/>
<path d="M146.777 39.6263H142.772V20.9154C142.803 19.1116 142.894 17.2772 143.108 15.4734H143.017C142.772 16.3906 142.405 17.3078 141.977 18.1638L130.206 39.5957H128.219L116.479 18.3167C116.02 17.3995 115.684 16.4517 115.44 15.4428H115.348C115.501 17.2466 115.562 19.081 115.531 20.9154V39.5957H111.648V11.7129H116.999L127.577 31.1575C128.189 32.2275 128.739 33.3588 129.167 34.5205H129.32C130.023 32.9919 130.573 31.8607 130.971 31.0963L141.763 11.7129H146.808V39.6263" fill="white"/>
<path d="M168.55 28.6527L162.099 29.3865C160.112 29.6005 158.613 29.9979 157.605 30.5788C156.596 31.1597 156.076 32.1686 156.076 33.6056C156.076 34.6451 156.596 35.6234 157.482 36.2043C158.399 36.8769 159.653 37.2132 161.212 37.2132C163.352 37.2132 165.095 36.6017 166.471 35.4094C167.816 34.2782 168.58 32.5967 168.55 30.8234V28.6527ZM172.83 39.6285H168.55V36.2349H168.458C166.593 38.8336 163.842 40.1177 160.234 40.1177C157.574 40.1177 155.495 39.5368 153.966 38.4056C152.499 37.3661 151.673 35.654 151.704 33.8502C151.704 29.8145 154.639 27.4603 160.54 26.7877L168.55 25.8705C168.55 22.2017 166.715 20.3673 163.047 20.3673C159.928 20.3368 156.901 21.254 154.333 23.0272V19.4807C156.963 18.1355 159.989 17.4629 163.413 17.4629C169.712 17.4629 172.83 20.1533 172.83 25.5342V39.6285Z" fill="white"/>
<path d="M192.699 21.4686C191.935 21.01 190.865 20.7654 189.458 20.7654C187.685 20.7348 186.004 21.4991 184.872 22.8749C183.65 24.2813 183.038 26.1768 183.038 28.5921V39.6291H178.758V17.9832H183.038V22.4469H183.13C183.68 21.01 184.658 19.7565 185.943 18.8698C187.165 18.0138 188.633 17.5858 190.162 17.5858C191.018 17.5552 191.904 17.6469 192.73 17.8915L192.699 21.4686Z" fill="white"/>
<path d="M207.623 39.4121C206.614 39.8707 205.269 40.0847 203.618 40.0847C198.94 40.0847 196.586 37.9752 196.586 33.7255V20.9153H192V17.9497H196.586V12.6605L200.866 11.5293V17.9497H207.592V20.9153H200.866V33.114C200.866 34.551 201.172 35.5904 201.783 36.2325C202.395 36.8745 203.404 37.1497 204.81 37.1497C205.789 37.1802 206.767 36.9357 207.592 36.4159L207.623 39.4121Z" fill="white"/>
</g>
<defs>
<clipPath id="clip0_894_12794">
<rect width="207.592" height="48" fill="white" transform="translate(0 0.0644531)"/>
</clipPath>
</defs>
</svg>
