<svg width="144" height="48" viewBox="0 0 144 48" fill="none" xmlns="http://www.w3.org/2000/svg">
<path d="M102.586 37.0055V0H110.022V37.0055H102.586Z" fill="#F7A600"/>
<path d="M15.9379 47.9944H0V10.9946H15.2986C22.729 10.9946 27.0662 15.0513 27.0662 21.3898C27.0662 25.4984 24.2842 28.1432 22.3546 29.0306C24.6528 30.0679 27.5962 32.4074 27.5962 37.3456C27.5962 44.2489 22.729 47.9944 15.9379 47.9944ZM14.711 17.4426H7.4304V25.9651H14.711C17.8675 25.9651 19.6358 24.2479 19.6358 21.701C19.6358 19.1541 17.8675 17.4426 14.711 17.4426ZM15.1891 32.4592H7.4304V41.5521H15.1834C18.5587 41.5521 20.16 39.4719 20.16 36.9769C20.16 34.4818 18.553 32.4592 15.1891 32.4592Z" fill="white"/>
<path d="M50.2733 32.8165V47.9944H42.889V32.8165L31.4438 10.9946H39.5251L46.633 25.9075L53.6429 10.9946H61.7184L50.2733 32.8165Z" fill="white"/>
<path d="M82.7942 47.9944H66.8563V10.9946H82.1549C89.5853 10.9946 93.9226 15.0513 93.9226 21.3898C93.9226 25.4984 91.1405 28.1432 89.2109 29.0306C91.5091 30.0679 94.4525 32.4074 94.4525 37.3456C94.4525 44.2489 89.591 47.9944 82.7942 47.9944ZM81.5674 17.4426H74.2925V25.9651H81.5674C84.7238 25.9651 86.4922 24.2479 86.4922 21.701C86.4864 19.1541 84.7181 17.4426 81.5674 17.4426ZM82.0454 32.4592H74.2925V41.5521H82.0454C85.4208 41.5521 87.0221 39.4719 87.0221 36.9769C87.0221 34.4818 85.415 32.4592 82.0454 32.4592Z" fill="white"/>
<path d="M133.983 17.4426V48.0001H126.547V17.4426H116.6V10.9946H143.931V17.4426H133.983Z" fill="white"/>
</svg>
