<svg width="175" height="49" viewBox="0 0 175 49" fill="none" xmlns="http://www.w3.org/2000/svg">
<g clip-path="url(#clip0_894_12769)">
<path d="M65.9206 11.9975V25.5931H52.3787V13.7405C52.3787 12.7752 51.6011 11.9707 50.6089 11.9707H46.0234V44.4981C46.0234 45.4634 46.8011 46.2679 47.7933 46.2679H52.3787V31.0903H65.9206V44.4981C65.8938 45.4634 66.6715 46.2679 67.6637 46.2947H67.6905H72.2759V13.7405C72.2759 12.7752 71.4983 11.9707 70.5061 11.9707L65.9206 11.9975ZM92.7899 20.4981V36.802C92.8167 38.2769 92.0391 39.6713 90.7519 40.4221C87.1586 42.4869 83.4581 39.8858 83.4581 36.507V22.2679C83.4581 21.3025 82.6804 20.4981 81.6882 20.4981H77.1028V37.0701C77.1296 42.4065 81.4469 46.7506 86.81 46.7774H89.4111C94.7743 46.7506 99.1184 42.4333 99.1452 37.0701V22.2411C99.1452 21.2757 98.3676 20.4713 97.3754 20.4713H92.7899V20.4981Z" fill="white"/>
<path d="M162.106 46.2976H166.691V23.2093C166.691 22.2439 165.914 21.4395 164.921 21.4395H160.336V44.5277C160.336 45.4931 161.114 46.2976 162.106 46.2976Z" fill="#2CA6E0"/>
<path d="M166.786 16.812C167.534 15.0059 166.676 12.9352 164.87 12.1871C163.064 11.4389 160.993 12.2966 160.245 14.1027C159.497 15.9089 160.355 17.9795 162.161 18.7277C163.967 19.4758 166.038 18.6181 166.786 16.812Z" fill="#2CA6E0"/>
<path d="M115.524 20.4707C108.873 20.4707 103.43 25.2171 103.43 31.8405V35.4338C103.43 42.0573 108.873 46.7768 115.524 46.7768C122.174 46.7768 127.617 42.0573 127.617 35.4338V31.8405C127.617 25.2171 122.174 20.4707 115.524 20.4707ZM121.235 35.8629C121.235 39.0003 118.661 41.0919 115.524 41.0919C112.386 41.0919 109.812 39.0003 109.812 35.8629V31.3847C109.812 28.2472 112.386 26.1556 115.524 26.1556C118.661 26.1556 121.235 28.2472 121.235 31.3847V35.8629Z" fill="white"/>
<path d="M143.977 20.4718C141.992 20.445 140.035 20.9008 138.238 21.7589V13.7679C138.238 12.8025 137.46 11.998 136.468 11.998H131.883V35.4081C131.883 42.0316 137.326 46.7511 143.977 46.7511C150.627 46.7511 156.071 42.0316 156.071 35.4081V31.8148C156.071 25.2182 150.654 20.4718 143.977 20.4718ZM149.715 35.864C149.715 39.0014 147.141 41.093 144.003 41.093C140.866 41.093 138.292 39.0014 138.292 35.864V31.3858C138.292 28.2483 140.866 26.1567 144.003 26.1567C147.141 26.1567 149.715 28.2483 149.715 31.3858V35.864Z" fill="#2CA6E0"/>
<path d="M26.8432 14.7863C26.8432 7.86788 23.4644 1.9148 20.8901 -0.0159224C20.8901 -0.0159224 20.7024 -0.123183 20.7024 0.144973C20.4879 13.4992 13.6499 17.1193 9.8957 21.9729C1.23425 33.2087 9.27894 45.5439 17.5113 47.8232C22.0968 49.1103 16.4387 45.5707 15.7147 38.1159C14.8298 29.1595 26.8432 22.2679 26.8432 14.7863Z" fill="white"/>
<path d="M30.7802 19.3452C30.7266 19.3184 30.6461 19.2915 30.5925 19.372C30.4584 21.0614 28.7422 24.6547 26.5433 27.953C19.1422 39.1351 23.3523 44.5519 25.7389 47.448C27.1065 49.1374 25.7389 47.448 29.1713 45.7318C33.4082 43.1575 36.1702 38.7061 36.5724 33.772C37.2696 25.8077 32.4696 20.7932 30.7802 19.3452Z" fill="#2CA6E0"/>
</g>
<defs>
<clipPath id="clip0_894_12769">
<rect width="174.838" height="48" fill="white" transform="translate(0 0.0644531)"/>
</clipPath>
</defs>
</svg>
