<svg width="211" height="49" viewBox="0 0 211 49" fill="none" xmlns="http://www.w3.org/2000/svg">
<g clip-path="url(#clip0_894_12850)">
<path d="M164.712 24.0462C164.712 22.822 164.712 21.6705 164.672 20.607C164.645 19.6037 164.544 18.6037 164.372 17.6147C164.211 16.7116 163.926 15.8345 163.527 15.0077C163.104 14.1552 162.54 13.3795 161.858 12.7134C160.89 11.7295 159.738 10.942 158.466 10.3949C157.091 9.84213 155.618 9.56813 154.134 9.589C152.645 9.56991 151.166 9.8438 149.784 10.3949C148.505 10.9345 147.346 11.7186 146.373 12.7024C145.692 13.3681 145.129 14.144 144.71 14.9967C144.314 15.8237 144.034 16.7009 143.878 17.6037C143.71 18.593 143.613 19.593 143.59 20.596C143.563 21.6595 143.55 22.811 143.556 24.0352C143.563 25.2595 143.556 26.4022 143.59 27.4723C143.613 28.4753 143.71 29.4753 143.878 30.4646C144.034 31.3673 144.314 32.2446 144.71 33.0716C145.131 33.9233 145.693 34.6989 146.373 35.3659C147.345 36.3505 148.504 37.1334 149.784 37.669C151.165 38.2237 152.644 38.4991 154.134 38.4793C155.618 38.501 157.092 38.2254 158.466 37.669C159.738 37.1292 160.89 36.3466 161.858 35.3659C162.539 34.6985 163.103 33.9231 163.527 33.0716C163.926 32.2447 164.211 31.3677 164.372 30.4646C164.542 29.4784 164.641 28.4813 164.667 27.4811C164.701 26.411 164.716 25.2661 164.707 24.044L164.712 24.0462ZM159.119 24.0462C159.119 25.4026 159.099 26.5321 159.052 27.4305C159.026 28.1684 158.952 28.9039 158.83 29.6323C158.747 30.1176 158.598 30.5895 158.386 31.0349C158.215 31.3939 157.99 31.7256 157.721 32.0191C157.304 32.4922 156.787 32.8682 156.207 33.12C155.554 33.3972 154.851 33.5381 154.141 33.534C153.427 33.5371 152.72 33.3962 152.063 33.12C151.469 32.8729 150.938 32.4967 150.51 32.0191C150.238 31.7269 150.014 31.3949 149.844 31.0349C149.638 30.589 149.497 30.117 149.422 29.6323C149.304 28.9034 149.23 28.1682 149.2 27.4305C149.16 26.5321 149.14 25.404 149.14 24.0462C149.14 22.6899 149.16 21.5582 149.2 20.6598C149.23 19.9221 149.304 19.1869 149.422 18.458C149.497 17.9733 149.638 17.5013 149.844 17.0554C150.014 16.6957 150.239 16.3638 150.51 16.0712C150.939 15.5943 151.469 15.2182 152.063 14.9703C152.719 14.6909 153.427 14.55 154.141 14.5563C154.851 14.549 155.555 14.6901 156.207 14.9703C156.787 15.2229 157.303 15.5987 157.721 16.0712C157.99 16.3651 158.214 16.6967 158.386 17.0554C158.598 17.5008 158.747 17.9727 158.83 18.458C158.952 19.1865 159.026 19.9219 159.052 20.6598C159.101 21.556 159.119 22.6877 159.119 24.0462Z" fill="#2DBD96"/>
<path d="M209.277 10.3245C209.275 10.0567 209.056 9.84028 208.786 9.83789H204.172C203.902 9.8391 203.683 10.0563 203.682 10.3245V27.2346L192.43 9.9744C192.354 9.85771 192.287 9.83789 192.121 9.83789H187.842C187.573 9.84145 187.355 10.0572 187.352 10.3245V37.7638C187.355 38.0306 187.573 38.2458 187.842 38.2482H192.454C192.723 38.247 192.941 38.0308 192.942 37.7638V20.8096L204.197 38.1094C204.274 38.2261 204.337 38.246 204.505 38.246H208.782C209.052 38.2448 209.27 38.0289 209.273 37.7616L209.277 10.3245Z" fill="#2DBD96"/>
<path d="M178.348 10.3245C178.347 10.0563 178.128 9.8391 177.858 9.83789H173.248C172.978 9.8391 172.759 10.0563 172.758 10.3245V37.7616C172.759 38.0298 172.978 38.247 173.248 38.2482H177.858C178.128 38.247 178.347 38.0298 178.348 37.7616V10.3245Z" fill="#2DBD96"/>
<path d="M123.159 24.0467C123.159 22.6815 123.174 21.5454 123.214 20.6404C123.241 19.9026 123.316 19.1672 123.436 18.4386C123.862 15.9946 125.749 14.5524 128.157 14.5524C129.728 14.5656 131.153 15.1425 132.063 16.4548C132.475 17.0674 132.776 17.7471 132.951 18.4628C132.964 18.5382 133.034 18.5908 133.111 18.5839H138.537C138.615 18.5839 138.644 18.5311 138.63 18.4562C138.038 15.1248 136.247 12.1326 133.082 10.6507C131.526 9.93625 129.829 9.57877 128.115 9.60485C125.059 9.60485 122.486 10.6426 120.393 12.7182C119.199 13.8732 118.384 15.3589 118.054 16.981C117.735 18.5781 117.573 20.9326 117.57 24.0445C117.567 27.1564 117.729 29.5102 118.054 31.1058C118.381 32.73 119.194 34.2187 120.387 35.3773C122.477 37.4515 125.051 38.4885 128.108 38.4885C129.822 38.5142 131.519 38.1576 133.075 37.4448C136.24 35.963 138.031 32.9707 138.624 29.6393C138.637 29.5623 138.608 29.5116 138.53 29.5116H133.102C133.025 29.5036 132.954 29.5567 132.942 29.6327C132.766 30.3477 132.466 31.0265 132.054 31.6386C131.144 32.9597 129.719 33.53 128.148 33.541C125.74 33.541 123.853 32.101 123.427 29.657C123.307 28.9284 123.233 28.193 123.205 27.4551C123.174 26.5458 123.159 25.4074 123.159 24.0467Z" fill="#2DBD96"/>
<path d="M65.8485 10.3245C65.8473 10.0563 65.6284 9.8391 65.358 9.83789H60.7483C60.4779 9.8391 60.259 10.0563 60.2578 10.3245V37.7638C60.2602 38.0311 60.4788 38.247 60.7483 38.2484H65.358C65.6275 38.247 65.846 38.0311 65.8485 37.7638V29.7095L69.5482 25.3212L77.1474 38.1028C77.2059 38.1971 77.3111 38.2527 77.4226 38.2484H83.0244C83.2818 38.2484 83.3284 38.0896 83.1997 37.8717L73.2501 21.1377L82.3785 10.2739C82.5627 10.0537 82.485 9.8445 82.1965 9.8445H76.0732C75.9987 9.84015 75.927 9.87324 75.8823 9.93257L65.8485 21.8709V10.3245Z" fill="#2DBD96"/>
<path d="M99.4361 33.5406C96.8417 33.5406 94.4891 31.1583 94.4891 28.3135V10.3245C94.4879 10.0563 94.269 9.8391 93.9986 9.83789H89.3889C89.1185 9.8391 88.8997 10.0563 88.8984 10.3245V28.243C88.8984 34.5072 93.6213 38.4882 99.4361 38.4882C105.251 38.4882 109.974 34.5072 109.974 28.243V10.3245C109.971 10.0567 109.753 9.84028 109.483 9.83789H104.871C104.602 9.8403 104.384 10.0571 104.383 10.3245V28.3135C104.383 31.1561 102.028 33.5406 99.4361 33.5406Z" fill="#2DBD96"/>
<path fill-rule="evenodd" clip-rule="evenodd" d="M13.9232 24.0448L28.2339 38.2445L37.2668 29.283C38.882 27.8402 41.3531 27.9043 42.89 29.4291C44.4269 30.9538 44.4916 33.4053 43.0373 35.0078L31.1169 46.836C29.5157 48.3983 26.9476 48.3983 25.3465 46.836L8.14837 29.7696V39.9135C8.14837 42.1522 6.31905 43.967 4.06247 43.967C1.80588 43.967 -0.0234375 42.1522 -0.0234375 39.9135V8.163C-0.0234375 5.92427 1.80588 4.10942 4.06247 4.10942C6.31905 4.10942 8.14837 5.92427 8.14837 8.163V18.3069L25.3442 1.24484C26.9449 -0.318591 29.514 -0.318591 31.1147 1.24484L43.0439 13.0709C44.4983 14.6733 44.4336 17.1249 42.8967 18.6496C41.3598 20.1743 38.8887 20.2385 37.2735 18.7957L28.2406 9.83419L13.9232 24.0448ZM28.2406 19.9869C26.586 19.986 25.0938 20.9741 24.46 22.4904C23.8262 24.0067 24.1756 25.7525 25.3452 26.9135C26.5149 28.0745 28.2744 28.4221 29.8031 27.7941C31.3319 27.1662 32.3287 25.6863 32.3287 24.0448C32.3293 22.9686 31.8989 21.9362 31.1322 21.1748C30.3655 20.4133 29.3254 19.9852 28.2406 19.9847V19.9869Z" fill="#2DBD96"/>
</g>
<defs>
<clipPath id="clip0_894_12850">
<rect width="210.811" height="48" fill="white" transform="translate(0 0.0644531)"/>
</clipPath>
</defs>
</svg>
