<svg width="143" height="41" viewBox="0 0 143 41" fill="none" xmlns="http://www.w3.org/2000/svg">
<g clip-path="url(#clip0_894_12838)">
<path d="M41.789 0.0644531H0.94212C0.69018 0.0644531 0.448564 0.1581 0.270415 0.324793C0.0922684 0.491485 -0.0078125 0.71757 -0.0078125 0.953311V39.174C-0.0078125 39.4098 0.0922684 39.6361 0.270415 39.8028C0.448564 39.9693 0.69018 40.0629 0.94212 40.0629H41.789C42.0412 40.0629 42.2826 39.9693 42.461 39.8028C42.639 39.6361 42.7393 39.4098 42.7393 39.174V0.953311C42.7393 0.71757 42.639 0.491485 42.461 0.324793C42.2826 0.1581 42.0412 0.0644531 41.789 0.0644531ZM28.4901 25.8413C28.4901 26.0771 28.39 26.3031 28.2119 26.4698C28.0338 26.6365 27.7921 26.7302 27.5402 26.7302H15.1911C14.9391 26.7302 14.6975 26.6365 14.5194 26.4698C14.3412 26.3031 14.2411 26.0771 14.2411 25.8413V14.2862C14.2411 14.0504 14.3412 13.8243 14.5194 13.6577C14.6975 13.4909 14.9391 13.3973 15.1911 13.3973H27.5402C27.7921 13.3973 28.0338 13.4909 28.2119 13.6577C28.39 13.8243 28.4901 14.0504 28.4901 14.2862V25.8413Z" fill="white"/>
<path d="M127.299 13.4004H114.95C114.426 13.4004 114 13.7983 114 14.2893V25.8444C114 26.3353 114.426 26.7332 114.95 26.7332H127.299C127.824 26.7332 128.249 26.3353 128.249 25.8444V14.2893C128.249 13.7983 127.824 13.4004 127.299 13.4004Z" fill="white"/>
<path d="M113.057 0.0644531H100.708C100.183 0.0644531 99.7578 0.462409 99.7578 0.953309V12.5085C99.7578 12.9994 100.183 13.3973 100.708 13.3973H113.057C113.581 13.3973 114.007 12.9994 114.007 12.5085V0.953309C114.007 0.462409 113.581 0.0644531 113.057 0.0644531Z" fill="white"/>
<path d="M141.557 0.0644531H129.208C128.683 0.0644531 128.258 0.462409 128.258 0.953309V12.5085C128.258 12.9994 128.683 13.3973 129.208 13.3973H141.557C142.082 13.3973 142.507 12.9994 142.507 12.5085V0.953309C142.507 0.462409 142.082 0.0644531 141.557 0.0644531Z" fill="white"/>
<path d="M113.057 26.7324H100.708C100.183 26.7324 99.7578 27.1304 99.7578 27.6213V39.1765C99.7578 39.6673 100.183 40.0654 100.708 40.0654H113.057C113.581 40.0654 114.007 39.6673 114.007 39.1765V27.6213C114.007 27.1304 113.581 26.7324 113.057 26.7324Z" fill="white"/>
<path d="M141.557 26.7324H129.208C128.683 26.7324 128.258 27.1304 128.258 27.6213V39.1765C128.258 39.6673 128.683 40.0654 129.208 40.0654H141.557C142.082 40.0654 142.507 39.6673 142.507 39.1765V27.6213C142.507 27.1304 142.082 26.7324 141.557 26.7324Z" fill="white"/>
<path d="M91.6586 0.0644531H79.3096C78.7849 0.0644531 78.3594 0.462409 78.3594 0.953309V12.5085C78.3594 12.9994 78.7849 13.3973 79.3096 13.3973H91.6586C92.1833 13.3973 92.6085 12.9994 92.6085 12.5085V0.953309C92.6085 0.462409 92.1833 0.0644531 91.6586 0.0644531Z" fill="white"/>
<path d="M91.6586 26.7324H79.3096C78.7849 26.7324 78.3594 27.1304 78.3594 27.6213V39.1765C78.3594 39.6673 78.7849 40.0654 79.3096 40.0654H91.6586C92.1833 40.0654 92.6085 39.6673 92.6085 39.1765V27.6213C92.6085 27.1304 92.1833 26.7324 91.6586 26.7324Z" fill="white"/>
<path d="M78.3654 14.2762C78.3654 14.0404 78.2651 13.8143 78.0871 13.6477C77.9091 13.481 77.6673 13.3873 77.4155 13.3873H64.1163V0.953311C64.1163 0.71757 64.016 0.491485 63.838 0.324793C63.66 0.1581 63.4182 0.0644531 63.1664 0.0644531H50.8174C50.5652 0.0644531 50.3239 0.1581 50.1455 0.324793C49.9674 0.491485 49.8672 0.71757 49.8672 0.953311V39.1542C49.8672 39.3899 49.9674 39.6159 50.1455 39.7827C50.3239 39.9494 50.5652 40.043 50.8174 40.043H63.1664C63.4182 40.043 63.66 39.9494 63.838 39.7827C64.016 39.6159 64.1163 39.3899 64.1163 39.1542V26.7202H77.4155C77.6673 26.7202 77.9091 26.6265 78.0871 26.4598C78.2651 26.2931 78.3654 26.067 78.3654 25.8313V14.2762Z" fill="white"/>
</g>
<defs>
<clipPath id="clip0_894_12838">
<rect width="142.515" height="40" fill="white" transform="translate(0 0.0644531)"/>
</clipPath>
</defs>
</svg>
